<svg id="Layer_1" data-name="Layer 1" xmlns="http://www.w3.org/2000/svg" width="564.9535" height="199.65" viewBox="0 0 564.9535 199.65"><defs><style>.cls-1{fill:#fff;}</style></defs><path class="cls-1" d="M460.7334,165.2082a117.3639,117.3639,0,0,1,9.9035-29.3865,138.933,138.933,0,0,1,15.4135-25.209,79.227,79.227,0,0,1,12.46-13.1807,28.8125,28.8125,0,0,1,9.0032-4.2135,12.7124,12.7124,0,0,1,9.0752.2881c3.6013,2.5929,4.8978,8.6431,3.8894,18.0064a39.6135,39.6135,0,0,1-6.9144,16.3859,80.7763,80.7763,0,0,1-14.4052,15.45,118.05,118.05,0,0,1-18.5826,13.3247,98.8884,98.8884,0,0,1-19.771,8.6431m162.0577,23.1562a17.754,17.754,0,0,0-7.8148-6.9864,14.0805,14.0805,0,0,0-11.8842.6842c-6.59,2.881-14.9453,7.2026-24.9929,12.4244s-20.7794,10.5158-32.0874,15.4495a269.3046,269.3046,0,0,1-34.7164,12.3884,85.6734,85.6734,0,0,1-33.2759,3.2052,22.904,22.904,0,0,1-15.6655-6.5544A21.0312,21.0312,0,0,1,456.16,203.13a130.5114,130.5114,0,0,0,32.4116-12.8206A159.0317,159.0317,0,0,0,518.3539,170.25a126.5161,126.5161,0,0,0,23.0122-25.4611,70.4056,70.4056,0,0,0,11.74-29.17,102.9663,102.9663,0,0,0,.6123-16.0977,59.0691,59.0691,0,0,0-2.4849-15.5216,42.1006,42.1006,0,0,0-6.4824-13.0366,28.5941,28.5941,0,0,0-11.416-9.0392,31.98,31.98,0,0,0-13.0007-3.0251,60.246,60.246,0,0,0-13.6128,1.3685A66.0053,66.0053,0,0,0,493.6491,64.48a78.8971,78.8971,0,0,0-11.308,6.05,53.2272,53.2272,0,0,0-10.3,8.6791c-3.6013,3.8894-7.4907,8.1749-11.164,12.7846a183.2387,183.2387,0,0,0-11.7762,17.1781,201.9283,201.9283,0,0,0-11.9922,23.0842,207.096,207.096,0,0,0-10.0476,28.27,133.4181,133.4181,0,0,0-3.6013,16.3858c-4.5016,1.6926-8.9672,3.6013-13.4328,5.33q-8.427,3.6013-16.2058,7.0225a55.2792,55.2792,0,0,1-14.4051,3.9614,17.5742,17.5742,0,0,1-14.4051-5.5459,90.2489,90.2489,0,0,1-15.9177-24.3447,211.715,211.715,0,0,1-12.5325-32.8077,54.0191,54.0191,0,0,0-14.189-24.4887,25.2088,25.2088,0,0,0-20.8154-6.2662q-21.4276,2.1607-49.6977,31.6912c-2.4489,2.665-5.2939,5.7981-8.5351,9.4354s-6.5543,7.4186-9.9035,11.38-6.4823,7.7427-9.5434,11.5961-5.7621,7.5627-8.0309,10.8038a6.5542,6.5542,0,0,1-5.0418,3.6013q-2.7009,0-3.9974-3.8894-2.8811-6.05-7.4186-15.4855c-3.0611-6.3022-6.05-12.3164-9.0393-18.0064-5.5819-9.4354-11.524-15.3415-17.7183-17.5743a32.4118,32.4118,0,0,0-19.663-.5041,56.0347,56.0347,0,0,0-22.1118,13.5048c-18.4746,17.43-30.4669,40.37-45.4482,60.61-6.05,8.1749-12.3524,16.0977-18.0064,24.4527-3.9975,5.762-8.391,13.5768-5.33,20.6713a17.3579,17.3579,0,0,0,15.99,9.6875c12.5684-.3241,20.4192-12.2444,26.5774-21.86,12.9286-20.1672,26.1813-39.6141,39.9022-59.3851a15.8094,15.8094,0,0,1,10.48-7.2026,8.3548,8.3548,0,0,1,10.3,3.6013,213.5215,213.5215,0,0,1,12.2444,25.209,208.8773,208.8773,0,0,0,13.2887,27.0816,17.359,17.359,0,0,0,8.319,6.59,21.6084,21.6084,0,0,0,10.0836,1.4765,23.4092,23.4092,0,0,0,9.6154-3.2052,19.5908,19.5908,0,0,0,7.2026-7.4906c3.8894-6.1222,8.1749-12.3164,12.7845-18.6547s9.2193-12.3524,13.7569-18.0064,8.6791-10.6238,12.4965-14.7652a83.6952,83.6952,0,0,1,9.0392-8.8232q14.8373-13.6848,22.436-14.4051c4.4656-.4682,7.9588,2.6649,10.4077,9.3273q6.8786,18.6906,14.8373,35.2566a88.9882,88.9882,0,0,0,19.3749,27.1536,43.6835,43.6835,0,0,0,33.1678,13.3608,94.2812,94.2812,0,0,0,35.5447-9.1113c4.2495-1.9807,8.499-3.6013,12.7485-5.546a51.2823,51.2823,0,0,0,19.663,34.9685q11.9923,9.8674,33.3479,11.02a136.8453,136.8453,0,0,0,41.9909-4.2135,261.3394,261.3394,0,0,0,39.6141-13.3967q18.4746-7.9949,33.78-16.35c10.2276-5.5459,18.5826-9.9035,25.209-13.0726a14.4054,14.4054,0,0,0,9.3993-10.5878,15.9177,15.9177,0,0,0-2.5569-12.3524" transform="translate(-61.0465 -58.8927)"/></svg>