<svg id="Layer_1" data-name="Layer 1" xmlns="http://www.w3.org/2000/svg" viewBox="0 0 404.8 55.44"><defs><style>.cls-1{fill:#473c5e;}</style></defs><path class="cls-1" d="M399.23,31.78a2.77,2.77,0,0,1,.6-1.24,1.58,1.58,0,0,1,1.31-.53,1.47,1.47,0,0,1,1.2.52,1.82,1.82,0,0,1,.44,1.25Zm-3.76,3.81a5.83,5.83,0,0,0,1.25,2,6.12,6.12,0,0,0,2,1.4,7.13,7.13,0,0,0,2.82.53,7.56,7.56,0,0,0,2.41-.35,9.16,9.16,0,0,0,1.68-.72,1.14,1.14,0,0,0,.62-.76,1.49,1.49,0,0,0-.18-1l-.33-.61a1.11,1.11,0,0,0-.71-.64,1.54,1.54,0,0,0-1,.16,6.77,6.77,0,0,1-1,.39,4.06,4.06,0,0,1-1.16.16,3.22,3.22,0,0,1-1.75-.5,2.43,2.43,0,0,1-1-1.6h6.26a1.2,1.2,0,0,0,1-.43,1.32,1.32,0,0,0,.37-.89,6.83,6.83,0,0,0-.36-2.24,5.08,5.08,0,0,0-1.06-1.8,5,5,0,0,0-1.73-1.2,6,6,0,0,0-2.35-.44,6.49,6.49,0,0,0-2.58.49,5.72,5.72,0,0,0-1.95,1.31,5.87,5.87,0,0,0-1.23,2,7,7,0,0,0-.42,2.45,6.54,6.54,0,0,0,.42,2.3m-12,0a5.88,5.88,0,0,0,1.29,2A6,6,0,0,0,386.84,39a7.31,7.31,0,0,0,2.82.51,6.86,6.86,0,0,0,2.54-.42,9.12,9.12,0,0,0,1.69-.84,1.12,1.12,0,0,0,.53-.76,1.64,1.64,0,0,0-.18-1l-.3-.58a1.17,1.17,0,0,0-.73-.67,1.51,1.51,0,0,0-1,.23,5.68,5.68,0,0,1-1,.46,3.21,3.21,0,0,1-1.15.21,3.14,3.14,0,0,1-1.32-.26,2.84,2.84,0,0,1-1.48-1.62,3.22,3.22,0,0,1-.18-1,3.27,3.27,0,0,1,.17-1,2.69,2.69,0,0,1,.53-.91,2.78,2.78,0,0,1,.89-.64,3,3,0,0,1,1.25-.24,3.3,3.3,0,0,1,1,.13,4,4,0,0,1,.78.31,1.73,1.73,0,0,0,1,.22,1.09,1.09,0,0,0,.74-.59l.39-.6a1.45,1.45,0,0,0,.27-1,1.13,1.13,0,0,0-.54-.78,7.31,7.31,0,0,0-1.53-.73,7,7,0,0,0-2.31-.34,7.31,7.31,0,0,0-2.82.52A6.17,6.17,0,0,0,384.76,29a6,6,0,0,0-1.29,2,6.38,6.38,0,0,0-.43,2.33,6.48,6.48,0,0,0,.43,2.35M369.62,38a1.12,1.12,0,0,0,1.27,1.27h1.45A1.12,1.12,0,0,0,373.61,38V33.86a4.81,4.81,0,0,1,.15-1.2,2.86,2.86,0,0,1,.48-1,2.19,2.19,0,0,1,.81-.7,2.41,2.41,0,0,1,1.15-.25,1.22,1.22,0,0,1,1,.37,1.76,1.76,0,0,1,.33,1.2V38a1.12,1.12,0,0,0,1.27,1.27h1.45A1.12,1.12,0,0,0,381.51,38V31.53a5.86,5.86,0,0,0-.33-2.1,3.85,3.85,0,0,0-.9-1.38,3.57,3.57,0,0,0-1.35-.75,6.16,6.16,0,0,0-1.69-.23,4.64,4.64,0,0,0-1.4.2,4.8,4.8,0,0,0-1.07.48,4,4,0,0,0-.79.66,6,6,0,0,0-.53.72h0V29a.28.28,0,0,1,0-.09s0-.06,0-.09v-.21a1.11,1.11,0,0,0-1.25-1.27h-1.29a1.12,1.12,0,0,0-1.27,1.27Zm-9.15-6.19a3,3,0,0,1,.6-1.24,1.61,1.61,0,0,1,1.32-.53,1.47,1.47,0,0,1,1.2.52,1.87,1.87,0,0,1,.44,1.25Zm-3.75,3.81a5.83,5.83,0,0,0,1.25,2,6,6,0,0,0,2,1.4,7.13,7.13,0,0,0,2.82.53,7.56,7.56,0,0,0,2.41-.35,9.16,9.16,0,0,0,1.68-.72,1.14,1.14,0,0,0,.62-.76,1.49,1.49,0,0,0-.18-1L367,36.1a1.14,1.14,0,0,0-.71-.64,1.58,1.58,0,0,0-1,.16,6.25,6.25,0,0,1-1,.39,4.06,4.06,0,0,1-1.16.16,3.22,3.22,0,0,1-1.75-.5,2.39,2.39,0,0,1-1-1.6h6.26a1.21,1.21,0,0,0,1-.43,1.32,1.32,0,0,0,.37-.89,6.83,6.83,0,0,0-.36-2.24,5.08,5.08,0,0,0-1.06-1.8,5,5,0,0,0-1.73-1.2,6,6,0,0,0-2.35-.44,6.49,6.49,0,0,0-2.58.49,5.51,5.51,0,0,0-3.18,3.28,7,7,0,0,0-.43,2.45,6.55,6.55,0,0,0,.43,2.3M350.61,38a1.12,1.12,0,0,0,1.27,1.27h1.46A1.12,1.12,0,0,0,354.61,38V28.62a1.12,1.12,0,0,0-1.27-1.27h-1.46a1.12,1.12,0,0,0-1.27,1.27Zm2.68-12.12a1.12,1.12,0,0,0,1.27-1.27V24a1.12,1.12,0,0,0-1.27-1.27h-1.36A1.12,1.12,0,0,0,350.66,24v.58a1.12,1.12,0,0,0,1.27,1.27ZM341.26,38a1.12,1.12,0,0,0,1.27,1.27H344A1.12,1.12,0,0,0,345.25,38V34.62a5.07,5.07,0,0,1,.18-1.36,3.35,3.35,0,0,1,.52-1.13,2.58,2.58,0,0,1,.87-.77,2.51,2.51,0,0,1,1.25-.29,1.12,1.12,0,0,0,1.27-1.27V28.5a1.55,1.55,0,0,0-.24-.94,1,1,0,0,0-.84-.33,2.35,2.35,0,0,0-1.08.28,4.24,4.24,0,0,0-.93.69,4.63,4.63,0,0,0-.72.93,4.81,4.81,0,0,0-.44,1h0a.86.86,0,0,1,0-.23,1.69,1.69,0,0,1,0-.23,2.35,2.35,0,0,0,0-.28v-.74a1.12,1.12,0,0,0-1.27-1.27h-1.29a1.12,1.12,0,0,0-1.27,1.27Zm-9.15-6.19a3,3,0,0,1,.6-1.24A1.61,1.61,0,0,1,334,30a1.47,1.47,0,0,1,1.2.52,1.87,1.87,0,0,1,.44,1.25Zm-3.75,3.81a5.83,5.83,0,0,0,1.25,2,6,6,0,0,0,2,1.4,7.13,7.13,0,0,0,2.82.53,7.56,7.56,0,0,0,2.41-.35,9.16,9.16,0,0,0,1.68-.72,1.14,1.14,0,0,0,.62-.76,1.49,1.49,0,0,0-.18-1l-.33-.61a1.14,1.14,0,0,0-.71-.64,1.58,1.58,0,0,0-1,.16,6.25,6.25,0,0,1-1,.39,4.06,4.06,0,0,1-1.16.16,3.22,3.22,0,0,1-1.75-.5,2.39,2.39,0,0,1-1-1.6h6.26a1.21,1.21,0,0,0,1-.43,1.32,1.32,0,0,0,.37-.89,6.83,6.83,0,0,0-.36-2.24,5.08,5.08,0,0,0-1.06-1.8,5,5,0,0,0-1.73-1.2,6,6,0,0,0-2.35-.44,6.49,6.49,0,0,0-2.58.49,5.59,5.59,0,0,0-3.18,3.28,7,7,0,0,0-.43,2.45,6.55,6.55,0,0,0,.43,2.3m-10-3.55a2.75,2.75,0,0,1,.52-.91,2.07,2.07,0,0,1,.74-.53,2.2,2.2,0,0,1,.88-.18,2.08,2.08,0,0,1,1.69.8,3.32,3.32,0,0,1,.64,2.15,3,3,0,0,1-.69,2.12,2.21,2.21,0,0,1-1.64.73,2,2,0,0,1-1-.25,2.41,2.41,0,0,1-.72-.63,2.62,2.62,0,0,1-.44-.92,3.79,3.79,0,0,1-.14-1.05,4.1,4.1,0,0,1,.19-1.33m-4.07,10.55a1.12,1.12,0,0,0,1.27,1.27H317a1.12,1.12,0,0,0,1.27-1.27V39.17c0-.15,0-.29,0-.41s0-.23,0-.32a1.47,1.47,0,0,1,0-.28h0a3.38,3.38,0,0,0,.72.69,4.33,4.33,0,0,0,.94.46,3.91,3.91,0,0,0,1.37.21,5.49,5.49,0,0,0,2.19-.44,5,5,0,0,0,1.77-1.26,5.81,5.81,0,0,0,1.17-2,7.58,7.58,0,0,0,.41-2.55,7.77,7.77,0,0,0-.38-2.53,6.1,6.1,0,0,0-1.08-2,4.87,4.87,0,0,0-1.7-1.28,5.28,5.28,0,0,0-2.2-.45,4.22,4.22,0,0,0-1.64.29,5.83,5.83,0,0,0-1.1.61,4.84,4.84,0,0,0-.86.9h0V28.8a.22.22,0,0,1,0-.08s0,0,0-.08v-.25a.94.94,0,0,0-.33-.75,1.37,1.37,0,0,0-.94-.29h-1a1.12,1.12,0,0,0-1.27,1.27ZM302,37.72a1,1,0,0,0-.17,1.08c.16.3.5.44,1,.44h1.55a1.63,1.63,0,0,0,1.5-.9l.92-1.78a.87.87,0,0,0,.09-.17l.09-.2.1-.23h0l.1.23.09.2a.87.87,0,0,0,.09.17l.95,1.78a1.63,1.63,0,0,0,1.5.9h1.55c.52,0,.86-.14,1-.44a1,1,0,0,0-.17-1.08l-2.77-4.37,2.84-4.48a1,1,0,0,0,.17-1.08,1.07,1.07,0,0,0-1-.44h-1.63a1.61,1.61,0,0,0-1.51.92L307.47,30l-.11.25a2.72,2.72,0,0,0-.12.25l-.14.28h0a2.14,2.14,0,0,0-.12-.28,1.51,1.51,0,0,0-.13-.25,2.72,2.72,0,0,1-.12-.25l-.83-1.74a1.61,1.61,0,0,0-1.5-.92h-1.64a1.07,1.07,0,0,0-1,.44,1,1,0,0,0,.17,1.08l2.86,4.48ZM290,38a1.12,1.12,0,0,0,1.27,1.27h8.13A1.12,1.12,0,0,0,300.64,38v-.92a1.12,1.12,0,0,0-1.27-1.27H294V32.66h3.76A1.12,1.12,0,0,0,299,31.39v-.92a1.12,1.12,0,0,0-1.27-1.27H294v-3h5a1.12,1.12,0,0,0,1.27-1.27V24A1.12,1.12,0,0,0,299,22.73h-7.8A1.12,1.12,0,0,0,290,24Zm-15.34-6.19a3,3,0,0,1,.6-1.24,1.6,1.6,0,0,1,1.32-.53,1.47,1.47,0,0,1,1.2.52,1.87,1.87,0,0,1,.44,1.25Zm-3.75,3.81a5.69,5.69,0,0,0,1.25,2,5.92,5.92,0,0,0,2,1.4,7.13,7.13,0,0,0,2.82.53,7.56,7.56,0,0,0,2.41-.35,9.47,9.47,0,0,0,1.68-.72,1.14,1.14,0,0,0,.62-.76,1.49,1.49,0,0,0-.18-1l-.33-.61a1.14,1.14,0,0,0-.71-.64,1.58,1.58,0,0,0-1,.16,6.64,6.64,0,0,1-1,.39,4.06,4.06,0,0,1-1.16.16,3.19,3.19,0,0,1-1.75-.5,2.36,2.36,0,0,1-1-1.6h6.26a1.21,1.21,0,0,0,1-.43,1.32,1.32,0,0,0,.37-.89,6.83,6.83,0,0,0-.36-2.24,5.08,5.08,0,0,0-1.06-1.8,5,5,0,0,0-1.73-1.2,6,6,0,0,0-2.35-.44,6.45,6.45,0,0,0-2.58.49,5.86,5.86,0,0,0-2,1.31,5.69,5.69,0,0,0-1.22,2,6.75,6.75,0,0,0-.43,2.45,6.33,6.33,0,0,0,.43,2.3m-9.21-.27a2.1,2.1,0,0,1-.71-.61,2.87,2.87,0,0,1-.42-.88,4,4,0,0,1-.13-1,2.57,2.57,0,0,1,.53-1.69,1.89,1.89,0,0,1,1.59-.67,4.3,4.3,0,0,1,.87.1,1.71,1.71,0,0,1,.74.39,2.14,2.14,0,0,1,.5.78,3.48,3.48,0,0,1,.2,1.27,3.82,3.82,0,0,1-.18,1.28,2,2,0,0,1-.5.79,1.73,1.73,0,0,1-.69.4,2.64,2.64,0,0,1-.78.12,2.13,2.13,0,0,1-1-.23M258,41.86a1.15,1.15,0,0,0,.69,1.65,7,7,0,0,0,1.51.41,12.24,12.24,0,0,0,2,.17,8.72,8.72,0,0,0,2.3-.31,6.15,6.15,0,0,0,2.12-1,5.51,5.51,0,0,0,1.54-1.83,5.81,5.81,0,0,0,.6-2.76V28.62a1.12,1.12,0,0,0-1.27-1.27h-1.08a1.4,1.4,0,0,0-.95.29.92.92,0,0,0-.32.7v.21a.14.14,0,0,0,0,.07h-.05a2.94,2.94,0,0,0-.66-.76,4.72,4.72,0,0,0-1-.55,4.38,4.38,0,0,0-1.58-.24,5.46,5.46,0,0,0-2.41.49,4.86,4.86,0,0,0-1.71,1.3,5.38,5.38,0,0,0-1,1.87,7.58,7.58,0,0,0-.32,2.19,7.46,7.46,0,0,0,.33,2.22,5.83,5.83,0,0,0,1,1.91,4.94,4.94,0,0,0,1.7,1.34,5.29,5.29,0,0,0,2.39.51,3.74,3.74,0,0,0,1.74-.37,3.45,3.45,0,0,0,1.17-1.09h0a.78.78,0,0,0,0,.16v.88a2.36,2.36,0,0,1-.23,1.1,2,2,0,0,1-.61.69,3.08,3.08,0,0,1-.89.36,4.68,4.68,0,0,1-1.07.11,6.87,6.87,0,0,1-1.19-.09,7.9,7.9,0,0,1-.93-.23,1.39,1.39,0,0,0-1,0,1.34,1.34,0,0,0-.6.77Zm-10-7a2,2,0,0,1,.67-.42,3.49,3.49,0,0,1,.9-.23,6.39,6.39,0,0,1,1-.07h.37v.32a2,2,0,0,1-.15.74,2.08,2.08,0,0,1-.43.67,2.5,2.5,0,0,1-.65.5,1.66,1.66,0,0,1-.8.19,1.14,1.14,0,0,1-.85-.3,1,1,0,0,1-.28-.71.93.93,0,0,1,.26-.69M244,37.33a3.6,3.6,0,0,0,.8,1.15,3.65,3.65,0,0,0,1.23.76,4.18,4.18,0,0,0,1.57.28,3.88,3.88,0,0,0,1.54-.29,4.18,4.18,0,0,0,1.11-.66,4.26,4.26,0,0,0,.86-.94h0a.12.12,0,0,0,0,.07V38a1.13,1.13,0,0,0,1.27,1.29h1.11A1.12,1.12,0,0,0,254.82,38v-6a4.6,4.6,0,0,0-1.42-3.57,5.63,5.63,0,0,0-3.89-1.28,8.09,8.09,0,0,0-2.31.3,10.88,10.88,0,0,0-1.69.63,1.16,1.16,0,0,0-.65.72,1.49,1.49,0,0,0,.14,1l.28.57a1.16,1.16,0,0,0,1.71.56,8.07,8.07,0,0,1,1-.37,3.86,3.86,0,0,1,1.13-.16,2.33,2.33,0,0,1,1.17.28,1.09,1.09,0,0,1,.51,1v.21h-.34a15.22,15.22,0,0,0-2.29.18,8.19,8.19,0,0,0-2.17.65,4.55,4.55,0,0,0-1.63,1.25,3.05,3.05,0,0,0-.63,2,3.66,3.66,0,0,0,.28,1.44m-8.93-2a2.1,2.1,0,0,1-.71-.61,2.65,2.65,0,0,1-.41-.88,3.65,3.65,0,0,1-.14-1,2.57,2.57,0,0,1,.53-1.69,1.89,1.89,0,0,1,1.59-.67,4.22,4.22,0,0,1,.87.1,1.71,1.71,0,0,1,.74.39,2,2,0,0,1,.51.78,3.5,3.5,0,0,1,.19,1.27,3.82,3.82,0,0,1-.18,1.28,2,2,0,0,1-.5.79,1.73,1.73,0,0,1-.69.4,2.59,2.59,0,0,1-.78.12,2.13,2.13,0,0,1-1-.23m-3.71,6.54a1.15,1.15,0,0,0,.69,1.65,7,7,0,0,0,1.52.41,12.05,12.05,0,0,0,2,.17,8.7,8.7,0,0,0,2.29-.31,6.06,6.06,0,0,0,2.12-1,5.66,5.66,0,0,0,1.55-1.83,5.93,5.93,0,0,0,.6-2.76V28.62a1.12,1.12,0,0,0-1.27-1.27h-1.09a1.4,1.4,0,0,0-1,.29.92.92,0,0,0-.32.7v.21a.14.14,0,0,0,0,.07h0a3.18,3.18,0,0,0-.67-.76,4.72,4.72,0,0,0-1-.55,4.38,4.38,0,0,0-1.58-.24,5.49,5.49,0,0,0-2.41.49,4.86,4.86,0,0,0-1.71,1.3,5.38,5.38,0,0,0-1,1.87,7.58,7.58,0,0,0-.32,2.19,7.46,7.46,0,0,0,.33,2.22,5.83,5.83,0,0,0,1,1.91,5,5,0,0,0,1.7,1.34,5.29,5.29,0,0,0,2.39.51,3.68,3.68,0,0,0,1.74-.37,3.45,3.45,0,0,0,1.17-1.09h0a.78.78,0,0,0,0,.16v.88a2.36,2.36,0,0,1-.23,1.1,1.86,1.86,0,0,1-.61.69,3,3,0,0,1-.89.36,4.59,4.59,0,0,1-1.06.11,6.71,6.71,0,0,1-1.19-.09,8.08,8.08,0,0,1-.94-.23,1.39,1.39,0,0,0-1,0,1.34,1.34,0,0,0-.6.77ZM222.14,35A3.8,3.8,0,0,0,224,38.5a4.94,4.94,0,0,0,1.64.67,6.85,6.85,0,0,0,1.52.19,2.14,2.14,0,0,0,1.22-.28,1.09,1.09,0,0,0,.42-1v-1a1.18,1.18,0,0,0-.29-.92,1.85,1.85,0,0,0-1-.35,2,2,0,0,1-1-.4,1.33,1.33,0,0,1-.42-1.1v-3.6h1.24a1.12,1.12,0,0,0,1.25-1.27v-.58a1.12,1.12,0,0,0-1.27-1.27h-1.22V25.41a1.13,1.13,0,0,0-1.28-1.27h-1.33a1.13,1.13,0,0,0-1.28,1.27v2.15h-.43a1.12,1.12,0,0,0-1.27,1.27v.58a1.11,1.11,0,0,0,1.24,1.27h.35ZM211.35,38a1.12,1.12,0,0,0,1.27,1.27h1.46A1.12,1.12,0,0,0,215.35,38V34.62a5.51,5.51,0,0,1,.17-1.36,3.56,3.56,0,0,1,.52-1.13,2.61,2.61,0,0,1,.88-.77,2.48,2.48,0,0,1,1.25-.29,1.13,1.13,0,0,0,1.27-1.27V28.5a1.55,1.55,0,0,0-.24-.94,1,1,0,0,0-.85-.33,2.31,2.31,0,0,0-1.07.28,4.3,4.3,0,0,0-.94.69,5,5,0,0,0-.71.93,4.31,4.31,0,0,0-.44,1h-.05a.85.85,0,0,1,0-.23,1.69,1.69,0,0,1,0-.23c0-.08,0-.17,0-.28v-.74a1.12,1.12,0,0,0-1.27-1.27h-1.3a1.12,1.12,0,0,0-1.27,1.27ZM200.9,32.13a3,3,0,0,1,.59-.92,2.66,2.66,0,0,1,.86-.58,2.58,2.58,0,0,1,1-.21,2.61,2.61,0,0,1,1,.21,2.73,2.73,0,0,1,.85.58,2.8,2.8,0,0,1,.59.92,3.09,3.09,0,0,1,.22,1.2,3,3,0,0,1-.22,1.19,2.81,2.81,0,0,1-.59.9,2.67,2.67,0,0,1-.85.56,2.78,2.78,0,0,1-1,.19,2.75,2.75,0,0,1-1-.19,2.61,2.61,0,0,1-.86-.56,3,3,0,0,1-.59-.9,3.19,3.19,0,0,1-.21-1.19,3.29,3.29,0,0,1,.21-1.2m-3.73,3.73a6,6,0,0,0,1.45,2,6.33,6.33,0,0,0,2.13,1.26,8.11,8.11,0,0,0,5.27,0,6.28,6.28,0,0,0,2.14-1.26,5.92,5.92,0,0,0,2-4.49,6,6,0,0,0-2-4.54A6.69,6.69,0,0,0,206,27.52a7.68,7.68,0,0,0-2.65-.45,7.54,7.54,0,0,0-2.61.45,6.7,6.7,0,0,0-2.13,1.27,6,6,0,0,0-2,4.54,6,6,0,0,0,.53,2.53m-19.6,2.07a1.29,1.29,0,0,0,.26,1,1.2,1.2,0,0,0,.94.34h1.52A1.19,1.19,0,0,0,181.61,38l.42-6.21a7.58,7.58,0,0,0,0-1c0-.33,0-.63,0-.89s0-.62,0-.92h0c.11.33.22.67.32,1s.2.58.31.9.2.62.3.88l1.36,3.76a1.41,1.41,0,0,0,1.45,1h1.3a1.42,1.42,0,0,0,1.45-1l1.36-3.76c.1-.26.2-.56.3-.88s.21-.62.3-.9l.33-1h0c0,.3,0,.61,0,.92a8.55,8.55,0,0,0,0,.89c0,.33,0,.65,0,1l.42,6.21a1.19,1.19,0,0,0,1.32,1.22h1.5a1.19,1.19,0,0,0,.93-.34,1.25,1.25,0,0,0,.27-1L194.2,24a1.2,1.2,0,0,0-1.32-1.22H190.8a1.39,1.39,0,0,0-1.43,1l-2.06,5.94c-.09.26-.18.55-.29.86s-.18.61-.26.89l-.28,1h0c-.1-.32-.19-.65-.28-1s-.17-.57-.27-.89-.19-.6-.29-.86l-2-5.94a1.39,1.39,0,0,0-1.43-1H180A1.2,1.2,0,0,0,178.72,24Z" transform="translate(-1.93 -1.85)"/><path class="cls-1" d="M113,31.37a32.59,32.59,0,0,1,2.75-8.16,38.58,38.58,0,0,1,4.28-7,22,22,0,0,1,3.46-3.66,8,8,0,0,1,2.5-1.17,3.53,3.53,0,0,1,2.52.08c1,.72,1.36,2.4,1.08,5a11,11,0,0,1-1.92,4.55,22.43,22.43,0,0,1-4,4.29A32.78,32.78,0,0,1,118.51,29a27.46,27.46,0,0,1-5.49,2.4m45,6.43a4.93,4.93,0,0,0-2.17-1.94,3.91,3.91,0,0,0-3.3.19c-1.83.8-4.15,2-6.94,3.45s-5.77,2.92-8.91,4.29a74.78,74.78,0,0,1-9.64,3.44,23.79,23.79,0,0,1-9.24.89,6.36,6.36,0,0,1-4.35-1.82,5.84,5.84,0,0,1-1.74-4.43,36.24,36.24,0,0,0,9-3.56A44.16,44.16,0,0,0,129,32.77a35.13,35.13,0,0,0,6.39-7.07,19.55,19.55,0,0,0,3.26-8.1,28.59,28.59,0,0,0,.17-4.47,16.4,16.4,0,0,0-.69-4.31,11.69,11.69,0,0,0-1.8-3.62,7.94,7.94,0,0,0-3.17-2.51,8.88,8.88,0,0,0-3.61-.84,16.73,16.73,0,0,0-3.78.38,18.33,18.33,0,0,0-3.63,1.17A21.91,21.91,0,0,0,119,5.08a14.78,14.78,0,0,0-2.86,2.41c-1,1.08-2.08,2.27-3.1,3.55a50.88,50.88,0,0,0-3.27,4.77,56.07,56.07,0,0,0-3.33,6.41,57.51,57.51,0,0,0-2.79,7.85,37.05,37.05,0,0,0-1,4.55c-1.25.47-2.49,1-3.73,1.48q-2.34,1-4.5,1.95a15.35,15.35,0,0,1-4,1.1,4.88,4.88,0,0,1-4-1.54A25.06,25.06,0,0,1,82,30.85a58.79,58.79,0,0,1-3.48-9.11,15,15,0,0,0-3.94-6.8A7,7,0,0,0,68.8,13.2Q62.85,13.8,55,22c-.68.74-1.47,1.61-2.37,2.62s-1.82,2.06-2.75,3.16S48.08,29.93,47.23,31,45.63,33.1,45,34a1.82,1.82,0,0,1-1.4,1q-.75,0-1.11-1.08-.8-1.68-2.06-4.3c-.85-1.75-1.68-3.42-2.51-5C36.37,22,34.72,20.36,33,19.74a9,9,0,0,0-5.46-.14,15.56,15.56,0,0,0-6.14,3.75c-5.13,4.84-8.46,11.21-12.62,16.83-1.68,2.27-3.43,4.47-5,6.79-1.11,1.6-2.33,3.77-1.48,5.74A4.82,4.82,0,0,0,6.74,55.4c3.49-.09,5.67-3.4,7.38-6.07,3.59-5.6,7.27-11,11.08-16.49a4.39,4.39,0,0,1,2.91-2,2.32,2.32,0,0,1,2.86,1,59.29,59.29,0,0,1,3.4,7,58,58,0,0,0,3.69,7.52,4.82,4.82,0,0,0,2.31,1.83,6,6,0,0,0,2.8.41,6.5,6.5,0,0,0,2.67-.89,5.44,5.44,0,0,0,2-2.08c1.08-1.7,2.27-3.42,3.55-5.18s2.56-3.43,3.82-5,2.41-2.95,3.47-4.1a23.24,23.24,0,0,1,2.51-2.45q4.12-3.8,6.23-4c1.24-.13,2.21.74,2.89,2.59q1.91,5.19,4.12,9.79a24.71,24.71,0,0,0,5.38,7.54,12.13,12.13,0,0,0,9.21,3.71A26.18,26.18,0,0,0,98.89,46c1.18-.55,2.36-1,3.54-1.54a14.24,14.24,0,0,0,5.46,9.71q3.33,2.74,9.26,3.06a38,38,0,0,0,11.66-1.17,72.57,72.57,0,0,0,11-3.72q5.13-2.22,9.38-4.54c2.84-1.54,5.16-2.75,7-3.63a4,4,0,0,0,2.61-2.94,4.42,4.42,0,0,0-.71-3.43" transform="translate(-1.93 -1.85)"/></svg>